<svg width="29" height="30" viewBox="0 0 29 30" fill="none" xmlns="http://www.w3.org/2000/svg">
<path d="M27.7391 11.2558C23.7043 16.2992 22.6956 22.7506 22.6956 25.2723C21.4348 24.6419 17.833 23.1253 14.5 25.9027C10.7174 29.0549 8.82608 27.1636 6.93478 25.9027C6.93478 18.8419 3.15217 13.3572 1.26086 11.2558L14.5 6.21228C15.1304 6.42243 18.6609 7.72532 27.7391 11.2558Z" fill="#666666" stroke="#666666" stroke-linecap="round"/>
<path fill-rule="evenodd" clip-rule="evenodd" d="M5.97247 0.853638H22.9942V8.73407C22.9942 9.25634 22.5708 9.67972 22.0486 9.67972C21.5263 9.67972 21.1029 9.25634 21.1029 8.73407V2.74494H7.86378V9.67972H5.97247V0.853638Z" fill="#666666"/>
<path d="M12.6086 1.16884C13.2391 0.328258 14.8782 -0.848554 16.3913 1.16884" stroke="#666666" stroke-width="1.5" stroke-linecap="round"/>
<path d="M29 27.7942C26.4783 30.3159 25.2174 30.3159 22.6957 28.4246C20.1739 26.5333 18.2826 25.9028 15.1304 28.4249C11.7889 31.0985 8.19565 29.6855 6.30435 28.4246C4.41304 27.1637 2.52174 25.9029 0 28.4249" stroke="#666666" stroke-width="1.5" stroke-linecap="round"/>
</svg>
