<svg width="42" height="42" viewBox="0 0 42 42" fill="none" xmlns="http://www.w3.org/2000/svg">
<path fill-rule="evenodd" clip-rule="evenodd" d="M41.2 33.3V11.3L29.3 15V20H23.9V24.6H17.1V26H18.5V33.5H17.9V35H42V33.2L41.2 33.3ZM21.9 31.8H19.6V29.9H21.9V31.8ZM21.9 28.9H19.6V27H21.9V28.9ZM25.3 31.8H23V29.9H25.3V31.8ZM25.3 28.9H23V27H25.3V28.9ZM28.8 32.2H27.3V21.3H28.8V32.2ZM34.4 31.8H31V29H34.4V31.8ZM34.4 27.4H31V24.6H34.4V27.4ZM34.4 23H31V20.2H34.4V23ZM34.4 18.8H31V16H34.4V18.8ZM39.5 31.8H36.1V29H39.5V31.8ZM39.5 27.4H36.1V24.6H39.5V27.4ZM39.5 23H36.1V20.2H39.5V23ZM39.5 18.8H36.1V16H39.5V18.8Z" fill="#666666"/>
<path d="M12.8 25.4995V19.1995L22.1 22.0995V19.6995L12.8 13.9995V7.49952C12.8 6.49952 12.1 5.79952 11.2 5.89952C10.1 5.89952 9.39995 6.59952 9.49995 7.49952V13.7995L0.199951 19.6995V22.0995L9.49995 19.1995L9.39995 25.4995L7.19995 27.1995V28.7995L11.4 27.4995L15.5 28.4995V26.8995L12.8 25.4995Z" fill="#666666"/>
</svg>
