<svg width="30" height="30" viewBox="0 0 30 30" fill="none" xmlns="http://www.w3.org/2000/svg">
<path d="M28.9062 27.754V0L14.6875 4.65241V10.7487H8.125V16.5241H0V18.1283H1.71875V27.4332H0.9375V30H30V27.754H28.9062ZM22.8125 6.09626H26.875V9.62567H22.8125V6.09626ZM22.8125 11.3904H26.875V14.9198H22.8125V11.3904ZM22.8125 17.0053H26.875V20.3743H22.8125V17.0053ZM22.8125 22.2995H26.875V25.8289H22.8125V22.2995ZM16.5625 6.09626H20.625V9.62567H16.5625V6.09626ZM16.5625 11.3904H20.625V14.9198H16.5625V11.3904ZM16.5625 17.0053H20.625V20.3743H16.5625V17.0053ZM16.5625 22.2995H20.625V25.8289H16.5625V22.2995ZM11.875 12.6738H13.75V26.3102H11.875V12.6738ZM7.03125 19.7326H9.84375V22.139H7.03125V19.7326ZM7.03125 23.5829H9.84375V25.9893H7.03125V23.5829ZM2.8125 19.7326H5.625V22.139H2.8125V19.7326ZM2.8125 23.5829H5.625V25.9893H2.8125V23.5829Z" fill="#3572A1"/>
</svg>
