<svg width="30" height="26" viewBox="0 0 30 26" fill="none" xmlns="http://www.w3.org/2000/svg">
<path d="M4.3659 25.5C4.11642 25.4377 3.80457 25.3753 3.61746 25.2506C2.86902 24.8766 2.4948 24.2531 2.43243 23.505C2.37006 22.7569 2.43243 21.884 2.37006 21.0736C2.37006 20.9489 2.37006 20.7618 2.37006 20.5748C1.55925 20.5748 0.748441 20.5748 0 20.5748C0 20.5125 0 20.4501 0 20.3878C0 17.7693 0 15.1509 0 12.5324C0 10.9738 0.748441 9.91396 2.12058 9.22818C2.24532 9.16583 2.43243 9.10349 2.55717 9.10349C2.68191 9.10349 2.74428 9.04115 2.74428 8.91646C3.55509 6.8591 4.3659 4.80175 5.17672 2.80673C5.61331 1.62219 6.42412 0.874065 7.67152 0.624688C7.98337 0.562344 8.23285 0.5 8.5447 0.5C12.8482 0.5 17.0894 0.5 21.3929 0.5C22.2037 0.5 23.0146 0.687032 23.7006 1.24813C24.1996 1.62219 24.5114 2.12095 24.7609 2.68204C25.5717 4.7394 26.3825 6.8591 27.1933 8.91646C27.2557 9.04115 27.3181 9.10349 27.4428 9.10349C28.7526 9.47756 29.5634 10.3504 29.8753 11.6596C29.9376 11.9713 30 12.283 30 12.5948C30 15.2132 30 17.7693 30 20.3878C30 20.4501 30 20.5125 30 20.5748C29.1892 20.5748 28.4407 20.5748 27.6299 20.5748C27.6299 20.6372 27.6299 20.6995 27.6299 20.7618C27.6299 21.6347 27.6299 22.5075 27.6299 23.318C27.5676 24.5025 26.8815 25.2506 25.7588 25.4377H25.6965C25.5094 25.4377 25.3222 25.4377 25.1351 25.4377C25.0728 25.4377 25.0728 25.4377 25.0104 25.3753C24.5738 25.313 24.1996 25.1259 23.8877 24.8766C23.3264 24.3778 23.1393 23.7544 23.1393 23.0686C23.1393 22.2581 23.1393 21.4476 23.1393 20.6372C23.1393 20.5748 23.1393 20.5125 23.1393 20.4501C17.7755 20.4501 12.3493 20.4501 6.98545 20.4501C6.98545 20.5125 6.98545 20.5748 6.98545 20.6372C6.98545 21.51 6.98545 22.3828 6.98545 23.1933C6.92308 24.0037 6.54886 24.6895 5.80042 25.0636C5.55094 25.1883 5.23909 25.2506 4.9896 25.313C4.74012 25.5 4.55301 25.5 4.3659 25.5ZM24.6362 9.04115C24.6362 8.9788 24.6362 8.9788 24.6362 8.91646C24.0125 7.17082 23.3888 5.48753 22.7027 3.7419C22.4532 3.05611 22.0166 2.80673 21.2682 2.80673C17.027 2.80673 12.8482 2.80673 8.60707 2.80673C8.48233 2.80673 8.35759 2.80673 8.29522 2.80673C7.98337 2.86908 7.73389 2.93142 7.54678 3.1808C7.42204 3.36783 7.23493 3.61721 7.17256 3.80424C6.54886 5.48753 5.92516 7.10848 5.30146 8.79177C5.30146 8.85411 5.23909 8.91646 5.23909 8.9788C11.7256 9.04115 18.2121 9.04115 24.6362 9.04115ZM25.1975 15.712C26.3202 15.712 27.2557 14.7768 27.2557 13.5923C27.2557 12.4077 26.3202 11.4726 25.1975 11.4726C24.0125 11.4726 23.0769 12.4077 23.0769 13.5923C23.1393 14.7768 24.0748 15.712 25.1975 15.712ZM6.79834 13.5923C6.79834 12.4077 5.86279 11.4726 4.74012 11.4726C3.55509 11.4726 2.68191 12.4077 2.68191 13.5923C2.68191 14.7768 3.61746 15.712 4.74012 15.712C5.86279 15.712 6.79834 14.7768 6.79834 13.5923Z" fill="#666666"/>
</svg>
